# xmcd CD database file
#
# Track frame offsets:
#	150
#	15805
#	33025
#	48450
#	61647
#	70327
#	87902
#	102480
#	110747
#	131585
#	148437
#	158837
#
# Disc length: 2294 seconds
#
# Revision: 2
# Processed by: cddbd v1.5.1PL2 Copyright (c) Steve Scherf et al.
# Submitted via: CDex 1.51
#
DISCID=9e08f40c
DTITLE=Magic Sam - Give Me Time
DYEAR=1968
DGENRE=Blues
TTITLE0=Give Me Time
TTITLE1=You Belong To Me
TTITLE2=That's Why I'm Crying
TTITLE3=You're So Fine
TTITLE4=Come Into My Arms
TTITLE5=I Can't Quit You Baby
TTITLE6=Sweet Little Angel
TTITLE7=That's All I Need
TTITLE8=What Have I Done Wrong
TTITLE9=Baby, You Torture My Soul
TTITLE10=I'm So Glad
TTITLE11=Shake A Hand
EXTD=YEAR: 1968
EXTT0=
EXTT1=
EXTT2=
EXTT3=
EXTT4=
EXTT5=
EXTT6=
EXTT7=
EXTT8=
EXTT9=
EXTT10=
EXTT11=
PLAYORDER=
